<?xml version="1.0" standalone="no"?>
<!DOCTYPE svg PUBLIC "-//W3C//DTD SVG 20010904//EN"
 "http://www.w3.org/TR/2001/REC-SVG-20010904/DTD/svg10.dtd">
<svg version="1.0" xmlns="http://www.w3.org/2000/svg"
 width="100.000000pt" height="100.000000pt" viewBox="0 0 100.000000 100.000000"
 preserveAspectRatio="xMidYMid meet">
<metadata>
Created by potrace 1.11, written by Peter Selinger 2001-2013
</metadata>
<g transform="translate(0.000000,100.000000) scale(0.100000,-0.100000)"
fill="#000000" stroke="none">
<path d="M221 888 c-14 -9 -71 -59 -125 -111 l-99 -95 44 -53 c24 -30 46 -56
49 -59 3 -3 59 -70 125 -150 66 -80 122 -147 125 -150 3 -3 21 -25 40 -50 19
-25 43 -54 53 -65 11 -11 26 -30 34 -42 9 -13 21 -23 28 -23 13 0 480 556 491
585 4 9 -18 36 -58 73 -34 32 -85 80 -113 105 -27 26 -54 47 -60 47 -5 1 -122
2 -259 3 -220 2 -252 0 -275 -15z m198 -85 c-73 -120 -78 -127 -83 -113 -3 8
-14 45 -24 83 l-20 67 75 0 75 0 -23 -37z m260 -30 c-10 -38 -21 -74 -24 -82
-4 -9 -23 14 -50 60 -25 41 -45 77 -45 82 0 4 31 7 69 7 l70 0 -20 -67z m-423
-38 c11 -41 16 -75 11 -75 -9 0 -121 27 -144 35 -11 3 93 114 107 115 3 0 14
-34 26 -75z m616 -36 c-4 -4 -40 -16 -79 -27 -52 -13 -73 -16 -73 -7 0 10 22
94 35 133 3 9 26 -5 65 -39 33 -29 56 -56 52 -60z m-323 22 c22 -38 41 -72 41
-75 0 -3 -43 -6 -95 -6 -52 0 -95 2 -95 5 0 14 93 154 100 150 4 -2 26 -36 49
-74z m-331 -117 c37 -9 72 -22 78 -28 6 -6 30 -63 53 -126 50 -136 52 -140 46
-140 -3 0 -152 180 -238 287 -22 27 -23 27 61 7z m632 11 c0 -3 -24 -34 -52
-68 -29 -34 -87 -104 -128 -154 -41 -50 -76 -90 -78 -88 -2 1 17 54 42 116 24
63 47 124 51 136 4 16 20 26 58 37 88 25 107 28 107 21z m-238 -55 c-4 -19
-101 -281 -111 -297 -6 -12 -122 276 -121 302 0 6 45 10 118 10 97 -1 116 -3
114 -15z"/>
</g>
</svg>
