<svg viewBox="0 0 239 69" fill="none" xmlns="http://www.w3.org/2000/svg">
<g clip-path="url(#clip0)">
<path d="M81.0127 14.8252C83.0821 17.2877 84.1421 20.3532 84.1421 24.1223C84.1421 27.9417 82.9307 30.957 80.4574 33.319C77.9842 35.6307 75.0061 36.7363 71.4224 36.5856C69.3529 36.5353 67.3844 35.9825 65.4158 35.0277V47.6416H60.0655V11.9607H64.6082L64.9616 13.2673C67.3844 11.7596 69.9081 11.0058 72.5328 11.0561C76.0661 11.1063 78.9432 12.3627 81.0127 14.8252ZM67.8891 16.8856C66.8796 17.3379 66.072 17.8907 65.4158 18.5943V28.8463C65.9206 29.4494 66.7282 30.0022 67.7882 30.4545C68.8481 30.9068 70.0091 31.158 71.17 31.158C73.3909 31.158 75.208 30.5047 76.5204 29.2483C77.8832 27.9417 78.5899 26.0823 78.5899 23.67C78.5899 21.2578 77.8832 19.3984 76.5204 18.0918C75.208 16.8354 73.3909 16.1821 71.17 16.1821C70.0091 16.2323 68.9491 16.4333 67.8891 16.8856Z" fill="#00222D"/>
<path d="M97.5685 11.5084C99.2342 11.1063 100.799 11.0561 102.364 11.3074C101.758 14.0714 101.405 15.7298 101.253 16.3329C99.4866 16.1821 98.0733 16.2323 96.9123 16.5339C95.8019 16.7852 94.5905 17.4385 93.4296 18.4938V35.681H87.8268V11.9607H92.7734L93.1267 13.5688C94.4895 12.614 95.9533 11.9104 97.5685 11.5084Z" fill="#00222D"/>
<path d="M124.169 14.7247C126.541 17.0364 127.702 20.0517 127.702 23.7706V24.5244C127.702 24.6752 127.702 24.9264 127.702 25.2782C127.702 25.63 127.652 25.8813 127.652 25.9818H108.824C109.026 27.59 109.733 28.7961 110.944 29.7509C112.105 30.6555 113.62 31.1581 115.386 31.2083C117.86 31.2586 119.778 30.5047 121.241 28.8966L127.349 29.0976C127.197 29.4494 126.996 29.8514 126.794 30.3037C125.683 32.2134 124.118 33.7211 122.099 34.8267C120.03 35.9323 117.809 36.4348 115.437 36.4348C111.954 36.4348 109.077 35.279 106.705 32.9672C104.332 30.6555 103.171 27.6402 103.171 23.9214C103.171 20.2025 104.383 17.1872 106.805 14.8252C109.228 12.4632 112.156 11.2571 115.588 11.2571C118.92 11.2571 121.797 12.413 124.169 14.7247ZM110.642 18.0918C109.784 18.9964 109.178 20.0517 108.774 21.3584H122.099C121.746 20.0015 121.14 18.9461 120.232 18.0918C118.92 16.9359 117.304 16.3831 115.487 16.3831C113.62 16.3831 112.004 16.9862 110.642 18.0918Z" fill="#00222D"/>
<path d="M139.766 4.67371V12.0109H146.428V16.5841H139.766V26.4843C139.766 26.5848 139.766 26.7356 139.766 26.9366C139.766 28.0925 139.816 28.9971 139.968 29.6001C140.119 30.2032 140.422 30.7058 140.927 31.0575C141.633 31.4093 142.39 31.4093 143.249 31.158C144.107 30.9068 144.864 30.4545 145.621 29.8514C145.873 30.3037 146.277 31.0575 146.782 32.0124C147.287 32.9672 147.69 33.721 147.993 34.1733L146.731 34.9774C145.621 35.7312 144.409 36.1835 143.047 36.4348C141.684 36.6358 140.422 36.5856 139.211 36.2338C137.091 35.5302 135.677 34.2738 134.971 32.4144C134.567 31.4093 134.415 30.0022 134.415 28.193V16.5841H131.235V12.0109H134.415V4.67371H139.766Z" fill="#00222D"/>
<path d="M157.785 4.62344V10.051H152.334V4.62344H157.785ZM157.785 11.9607V35.681H152.334V11.9607H157.785Z" fill="#00222D"/>
<path d="M165.357 32.7662C163.237 30.3037 162.227 27.2382 162.227 23.469C162.227 19.6497 163.439 16.6344 165.912 14.2724C168.385 11.9104 171.363 10.8551 174.947 11.0058C176.966 11.0561 178.985 11.6089 180.954 12.614V0H186.354V35.681H181.812L181.458 34.2739C179.035 35.7815 176.512 36.5353 173.887 36.4851C170.303 36.4851 167.426 35.2287 165.357 32.7662ZM178.48 30.7058C179.49 30.2535 180.297 29.7007 180.903 29.0473V18.7451C180.398 18.142 179.641 17.5892 178.531 17.0867C177.471 16.5841 176.31 16.3831 175.149 16.3831C172.878 16.3831 171.111 17.0364 169.799 18.2928C168.436 19.5994 167.729 21.4588 167.729 23.8711C167.729 26.2833 168.436 28.1428 169.799 29.4494C171.111 30.7058 172.928 31.3591 175.149 31.3591C176.36 31.3591 177.471 31.158 178.48 30.7058Z" fill="#00222D"/>
<path d="M211.138 14.7247C213.51 17.0364 214.671 20.0517 214.671 23.7706V24.5244C214.671 24.6752 214.671 24.9264 214.671 25.2782C214.671 25.63 214.62 25.8813 214.62 25.9818H195.793C196.046 27.59 196.702 28.7961 197.913 29.7509C199.074 30.6555 200.588 31.1581 202.355 31.2083C204.828 31.2586 206.746 30.5047 208.21 28.8966L214.318 29.0976C214.166 29.4494 213.964 29.8514 213.762 30.3037C212.652 32.2134 211.087 33.7211 209.068 34.8267C206.999 35.9323 204.778 36.4348 202.405 36.4348C198.923 36.4348 196.046 35.279 193.673 32.9672C191.301 30.6555 190.14 27.6402 190.14 23.9214C190.14 20.2025 191.351 17.1872 193.774 14.8252C196.197 12.4632 199.125 11.2571 202.557 11.2571C205.888 11.2571 208.765 12.413 211.138 14.7247ZM197.61 18.0918C196.752 18.9964 196.147 20.0517 195.743 21.3584H209.068C208.715 20.0015 208.059 18.9461 207.201 18.0918C205.888 16.9359 204.273 16.3831 202.456 16.3831C200.588 16.3831 198.973 16.9862 197.61 18.0918Z" fill="#00222D"/>
<path d="M220.173 12.0109L226.684 27.8412L233.195 12.0109H239.05L229.157 35.681H224.211L214.368 12.0109C214.318 12.0109 220.173 12.0109 220.173 12.0109Z" fill="#00222D"/>
<path d="M35.9888 3.21631H10.4989L-1.00949 13.8704L23.2691 43.2695L47.5476 13.8704L35.9888 3.21631ZM4.0885 13.1668L10.3474 7.28696L12.6693 15.4283L4.0885 13.1668ZM18.1206 16.1318L23.2186 7.63874L28.3166 16.1318H18.1206V16.1318ZM13.2245 6.18135H20.5939L15.5968 14.5739L13.2245 6.18135ZM19.332 33.721L5.19896 16.5339L13.7293 18.7953L19.332 33.721ZM29.427 19.0969L23.2186 35.5805L17.0102 19.0969H29.427ZM41.3392 16.5339L27.1052 33.8216L32.7584 18.8456L41.3392 16.5339ZM33.667 15.5288L36.0393 7.28696L42.3992 13.1668L33.667 15.5288ZM33.1622 6.18135L30.7899 14.4734L25.7928 6.18135H33.1622Z" fill="#FF5F2E"/>
</g>
</svg>
