<?xml version="1.0" encoding="utf-8"?>
<!-- Generator: Adobe Illustrator 24.1.0, SVG Export Plug-In . SVG Version: 6.00 Build 0)  -->
<svg width="491" height="303" version="1.1" id="Calque_1" xmlns="http://www.w3.org/2000/svg" xmlns:xlink="http://www.w3.org/1999/xlink" x="0px" y="0px"
	 viewBox="0 0 492 303" style="enable-background:new 0 0 492 303;" xml:space="preserve">
<style type="text/css">
	.st0{fill:#001116;}
	.st1{fill:#00222D;}
	.st2{fill:#F2FAFF;}
	.st3{fill:#FF5F2E;}
</style>
<path class="st0" d="M32.7,135c-18.1-10.4-27.1-15.6-30.5-21.7c-1.6-2.8-2.3-5.6-2.2-8.5h0V94.4l491.2,103.7v10.5h0
	c0,2.8-0.7,5.7-2.2,8.4c-3.4,6-12.4,11.2-30.5,21.7l-91,52.6c-11.3,6.5-16.9,9.8-23.4,11c-5.7,1.1-11.9,1.1-17.6,0
	c-6.5-1.2-12.1-4.5-23.4-11L32.7,135z"/>
<path class="st1" d="M32.7,124c-18.1-10.4-27.1-15.6-30.5-21.7c-3-5.3-3-11,0-16.3c3.4-6,12.4-11.2,30.5-21.7l91-52.6
	c11.3-6.5,16.9-9.8,23.4-11c5.7-1.1,11.9-1.1,17.6,0c6.5,1.2,12.1,4.5,23.4,11L458.5,168c18.1,10.4,27.1,15.6,30.5,21.7
	c3,5.3,3,11,0,16.3c-3.4,6-12.4,11.2-30.5,21.7l-91,52.6c-11.3,6.5-16.9,9.8-23.4,11c-5.7,1.1-11.9,1.1-17.6,0
	c-6.5-1.2-12.1-4.5-23.4-11L32.7,124z"/>
<path class="st0" d="M74,52.6l17.3-10c0.7-0.4,1.8-0.4,2.5,0l0,0c0.7,0.4,0.7,1,0,1.4L76.5,54c-0.7,0.4-1.8,0.4-2.5,0l0,0
	C73.3,53.6,73.3,53,74,52.6z"/>
<path class="st2" d="M39,75.2c-1.2-0.7-1.9-1-2.5-1.1c-0.6-0.1-1.2-0.1-1.8,0c-0.6,0.1-1.2,0.5-2.3,1.1l-4.5,2.6
	c-9.2,5.3-13.8,8-15.6,11.1c-1.5,2.7-1.5,5.6,0,8.3c1.7,3.1,6.3,5.7,15.6,11.1l281.8,162.7c9.2,5.3,13.8,8,19.2,9
	c4.7,0.9,9.7,0.9,14.4,0c5.3-1,9.9-3.7,19.2-9l101.8-58.8c9.2-5.3,13.8-8,15.6-11.1c1.5-2.7,1.5-5.6,0-8.3
	c-1.7-3.1-6.3-5.7-15.6-11.1L182.3,19.1c-9.2-5.3-13.8-8-19.2-9c-4.7-0.9-9.7-0.9-14.4,0c-5.3,1-9.9,3.7-19.2,9l-4.5,2.6
	c-1.1,0.7-1.7,1-1.9,1.4c-0.2,0.3-0.2,0.7,0,1c0.2,0.4,0.8,0.7,1.9,1.5c1,0.6,1.7,1.1,2.2,1.7c2.1,2.2,2.1,4.9,0,7.1
	c-0.9,0.9-2.4,1.8-5.5,3.6L60.4,73.3c-3.1,1.8-4.6,2.7-6.2,3.2c-3.8,1.2-8.5,1.2-12.3,0C41,76.2,40.1,75.8,39,75.2z"/>
<path class="st3" d="M236.8,113.2l-37.6,21.7l0,19.6l82.8,6.4l-11.1-47.8L236.8,113.2z M205.6,149.6l-0.1-10.8l16.4,5.5L205.6,149.6
	z M231.1,140.3l-6-12.2l21.1,3.5L231.1,140.3z M207.9,135.3l10.9-6.3l6,12L207.9,135.3z M260.9,155.5l-48.3-3.8l16.2-5.2
	L260.9,155.5z M252.5,133.4l17.1,20.5l-35.5-9.9L252.5,133.4z M266,120.9l6.6,28.1L257,130.4L266,120.9z M253,126.5l-9.7-9.6l18.8,0
	L253,126.5z M237.4,118.3l9.7,9.7l-20.6-3.4L237.4,118.3z"/>
</svg>
